<svg width="789" height="107" viewBox="0 0 789 107" fill="none" xmlns="http://www.w3.org/2000/svg">
<path d="M124.246 1.752V105.12H91.98V53.582L76.066 105.12H48.326L32.412 53.582V105.12H0V1.752H39.712L62.488 63.802L84.68 1.752H124.246Z" fill="#266DD3"/>
<path d="M189.241 106.142C179.508 106.142 170.553 103.855 162.377 99.28C154.298 94.7053 147.874 88.3787 143.105 80.3C138.336 72.2213 135.951 63.1207 135.951 52.998C135.951 42.8753 138.336 33.7747 143.105 25.696C147.874 17.6173 154.298 11.3393 162.377 6.862C170.553 2.28733 179.508 0 189.241 0C198.974 0 207.88 2.28733 215.959 6.862C224.038 11.3393 230.413 17.6173 235.085 25.696C239.854 33.7747 242.239 42.8753 242.239 52.998C242.239 63.1207 239.854 72.2213 235.085 80.3C230.413 88.3787 223.989 94.7053 215.813 99.28C207.734 103.855 198.877 106.142 189.241 106.142ZM189.241 75.92C195.665 75.92 200.629 73.876 204.133 69.788C207.637 65.6027 209.389 60.006 209.389 52.998C209.389 45.8927 207.637 40.296 204.133 36.208C200.629 32.0227 195.665 29.93 189.241 29.93C182.72 29.93 177.707 32.0227 174.203 36.208C170.699 40.296 168.947 45.8927 168.947 52.998C168.947 60.006 170.699 65.6027 174.203 69.788C177.707 73.876 182.72 75.92 189.241 75.92Z" fill="#266DD3"/>
<path d="M468.126 105.12H435.714L401.404 53.144V105.12H368.992V1.752H401.404L435.714 54.604V1.752H468.126V105.12Z" fill="#266DD3"/>
<path d="M551.974 52.122C558.203 53.582 563.021 56.5993 566.428 61.174C569.932 65.6513 571.684 70.8587 571.684 76.796C571.684 85.848 568.666 92.856 562.632 97.82C556.694 102.687 548.129 105.12 536.936 105.12H482.77V1.752H535.476C545.988 1.752 554.261 4.03934 560.296 8.614C566.33 13.1887 569.348 19.856 569.348 28.616C569.348 34.6507 567.742 39.7607 564.53 43.946C561.415 48.034 557.23 50.7593 551.974 52.122ZM515.182 42.048H527.738C530.658 42.048 532.799 41.464 534.162 40.296C535.622 39.128 536.352 37.3273 536.352 34.894C536.352 32.3633 535.622 30.514 534.162 29.346C532.799 28.0807 530.658 27.448 527.738 27.448H515.182V42.048ZM529.928 79.132C532.848 79.132 534.989 78.5967 536.352 77.526C537.812 76.358 538.542 74.5087 538.542 71.978C538.542 67.014 535.67 64.532 529.928 64.532H515.182V79.132H529.928Z" fill="#266DD3"/>
<path d="M614.986 1.752V105.12H582.574V1.752H614.986Z" fill="#266DD3"/>
<path d="M710.801 1.752V27.448H683.353V105.12H650.941V27.448H623.785V1.752H710.801Z" fill="#266DD3"/>
<path d="M752.004 27.594V40.296H784.124V64.678H752.004V79.278H788.504V105.12H719.592V1.752H788.504V27.594H752.004Z" fill="#266DD3"/>
<path fill-rule="evenodd" clip-rule="evenodd" d="M329.142 7.47181L329.143 7.41202L329.234 7.46184L329.142 7.47181ZM356.7 53.6201C356.7 51.7714 356.605 49.9449 356.418 48.1455C354.609 49.1964 352.507 49.7983 350.264 49.7983C345.647 49.7983 341.626 47.2488 339.532 43.4811C337.03 44.6933 334.222 45.373 331.255 45.373C320.757 45.373 312.246 36.8625 312.246 26.3644C312.246 23.9185 312.708 21.5806 313.549 19.433C308.173 18.0471 304.2 13.1653 304.2 7.35575C304.2 5.09473 304.802 2.97424 305.854 1.14567C305.305 1.12868 304.753 1.12012 304.2 1.12012C275.205 1.12012 251.7 24.6252 251.7 53.6201C251.7 82.6151 275.205 106.12 304.2 106.12C333.195 106.12 356.7 82.6151 356.7 53.6201ZM325.955 69.7338C331.79 67.5798 335.412 62.8293 334.044 59.1233C332.676 55.4174 326.836 54.1593 321.001 56.3134C315.166 58.4674 311.545 63.2179 312.913 66.9238C314.281 70.6298 320.12 71.8878 325.955 69.7338ZM323.492 83.3535C324.518 85.5795 321.174 89.3095 316.024 91.6847C310.873 94.0598 305.865 94.1807 304.838 91.9547C303.812 89.7286 307.155 85.9986 312.306 83.6235C317.457 81.2483 322.465 81.1275 323.492 83.3535ZM295.752 63.8786C297.085 63.8786 298.166 63.1582 298.166 62.2694C298.166 61.3807 297.085 60.6602 295.752 60.6602C294.419 60.6602 293.338 61.3807 293.338 62.2694C293.338 63.1582 294.419 63.8786 295.752 63.8786Z" fill="#266DD3"/>
<circle cx="330.45" cy="27.3701" r="4.52586" fill="#266DD3"/>
<circle cx="351.973" cy="31.9966" r="4.52586" fill="#266DD3"/>
<circle cx="336.585" cy="7.9592" r="6.83908" fill="#266DD3"/>
</svg>
