<svg width="303" height="155" viewBox="0 0 303 155" fill="none" xmlns="http://www.w3.org/2000/svg">
<path d="M81.696 1.152V69.12H60.48V35.232L50.016 69.12H31.776L21.312 35.232V69.12H0V1.152H26.112L41.088 41.952L55.68 1.152H81.696Z" fill="#266DD3"/>
<path d="M122.513 69.792C116.113 69.792 110.225 68.288 104.849 65.28C99.5365 62.272 95.3125 58.112 92.1765 52.8C89.0405 47.488 87.4725 41.504 87.4725 34.848C87.4725 28.192 89.0405 22.208 92.1765 16.896C95.3125 11.584 99.5365 7.456 104.849 4.512C110.225 1.504 116.113 0 122.513 0C128.913 0 134.769 1.504 140.081 4.512C145.393 7.456 149.585 11.584 152.657 16.896C155.793 22.208 157.361 28.192 157.361 34.848C157.361 41.504 155.793 47.488 152.657 52.8C149.585 58.112 145.36 62.272 139.984 65.28C134.672 68.288 128.849 69.792 122.513 69.792ZM122.513 49.92C126.737 49.92 130.001 48.576 132.305 45.888C134.609 43.136 135.761 39.456 135.761 34.848C135.761 30.176 134.609 26.496 132.305 23.808C130.001 21.056 126.737 19.68 122.513 19.68C118.225 19.68 114.929 21.056 112.625 23.808C110.321 26.496 109.169 30.176 109.169 34.848C109.169 39.456 110.321 43.136 112.625 45.888C114.929 48.576 118.225 49.92 122.513 49.92Z" fill="#266DD3"/>
<path d="M196.249 69.792C189.849 69.792 183.961 68.288 178.585 65.28C173.273 62.272 169.049 58.112 165.913 52.8C162.777 47.488 161.209 41.504 161.209 34.848C161.209 28.192 162.777 22.208 165.913 16.896C169.049 11.584 173.273 7.456 178.585 4.512C183.961 1.504 189.849 0 196.249 0C202.649 0 208.505 1.504 213.817 4.512C219.129 7.456 223.321 11.584 226.393 16.896C229.529 22.208 231.097 28.192 231.097 34.848C231.097 41.504 229.529 47.488 226.393 52.8C223.321 58.112 219.097 62.272 213.721 65.28C208.409 68.288 202.585 69.792 196.249 69.792ZM196.249 49.92C200.473 49.92 203.737 48.576 206.041 45.888C208.345 43.136 209.497 39.456 209.497 34.848C209.497 30.176 208.345 26.496 206.041 23.808C203.737 21.056 200.473 19.68 196.249 19.68C191.961 19.68 188.665 21.056 186.361 23.808C184.057 26.496 182.905 30.176 182.905 34.848C182.905 39.456 184.057 43.136 186.361 45.888C188.665 48.576 191.961 49.92 196.249 49.92Z" fill="#266DD3"/>
<path d="M302.049 69.12H280.737L258.177 34.944V69.12H236.865V1.152H258.177L280.737 35.904V1.152H302.049V69.12Z" fill="#266DD3"/>
<path d="M45.504 119.272C49.6 120.232 52.768 122.216 55.008 125.224C57.312 128.168 58.464 131.592 58.464 135.496C58.464 141.448 56.48 146.056 52.512 149.32C48.608 152.52 42.976 154.12 35.616 154.12H0V86.152H34.656C41.568 86.152 47.008 87.656 50.976 90.664C54.944 93.672 56.928 98.056 56.928 103.816C56.928 107.784 55.872 111.144 53.76 113.896C51.712 116.584 48.96 118.376 45.504 119.272ZM21.312 112.648H29.568C31.488 112.648 32.896 112.264 33.792 111.496C34.752 110.728 35.232 109.544 35.232 107.944C35.232 106.28 34.752 105.064 33.792 104.296C32.896 103.464 31.488 103.048 29.568 103.048H21.312V112.648ZM31.008 137.032C32.928 137.032 34.336 136.68 35.232 135.976C36.192 135.208 36.672 133.992 36.672 132.328C36.672 129.064 34.784 127.432 31.008 127.432H21.312V137.032H31.008Z" fill="#266DD3"/>
<path d="M90.777 86.152V154.12H69.465V86.152H90.777Z" fill="#266DD3"/>
<path d="M157.618 86.152V103.048H139.57V154.12H118.258V103.048H100.403V86.152H157.618Z" fill="#266DD3"/>
<path d="M188.551 103.144V111.496H209.671V127.528H188.551V137.128H212.551V154.12H167.239V86.152H212.551V103.144H188.551Z" fill="#266DD3"/>
<path fill-rule="evenodd" clip-rule="evenodd" d="M283.89 89.174L283.891 89.1347L283.951 89.1674L283.89 89.174ZM302 119.5C302 118.285 301.937 117.085 301.815 115.902C300.626 116.593 299.244 116.988 297.77 116.988C294.737 116.988 292.094 115.313 290.718 112.837C289.074 113.634 287.228 114.08 285.279 114.08C278.38 114.08 272.787 108.488 272.787 101.589C272.787 99.9818 273.091 98.4454 273.644 97.0342C270.11 96.1235 267.5 92.9154 267.5 89.0977C267.5 87.6119 267.895 86.2184 268.587 85.0168C268.226 85.0056 267.864 85 267.5 85C248.446 85 233 100.446 233 119.5C233 138.554 248.446 154 267.5 154C286.554 154 302 138.554 302 119.5ZM281.796 130.089C285.631 128.674 288.01 125.552 287.111 123.117C286.212 120.681 282.375 119.855 278.541 121.27C274.706 122.686 272.326 125.807 273.225 128.243C274.124 130.678 277.962 131.505 281.796 130.089ZM280.177 139.039C280.852 140.502 278.655 142.953 275.27 144.514C271.885 146.075 268.594 146.154 267.919 144.691C267.245 143.229 269.442 140.777 272.827 139.217C276.212 137.656 279.503 137.576 280.177 139.039ZM261.948 126.241C262.824 126.241 263.535 125.768 263.535 125.184C263.535 124.6 262.824 124.127 261.948 124.127C261.072 124.127 260.362 124.6 260.362 125.184C260.362 125.768 261.072 126.241 261.948 126.241Z" fill="#266DD3"/>
<circle cx="284.75" cy="102.25" r="2.97414" fill="#266DD3"/>
<circle cx="298.894" cy="105.29" r="2.97414" fill="#266DD3"/>
<circle cx="288.782" cy="89.4943" r="4.49425" fill="#266DD3"/>
</svg>
